HIERARCHY
ROOT Hips
{
	OFFSET 0.000000 88.474243 0.000000
	CHANNELS 6 Xposition Yposition Zposition Zrotation Yrotation Xrotation 
	JOINT Hips_Spine
	{
		OFFSET 0.000000 0.000000 0.000000
		CHANNELS 3 Zrotation Yrotation Xrotation
		JOINT Spine
		{
			OFFSET 0.005100 8.711998 -0.691000
			CHANNELS 3 Zrotation Yrotation Xrotation
			JOINT Spine1
			{
				OFFSET -0.009200 8.660301 -1.275000
				CHANNELS 3 Zrotation Yrotation Xrotation
				JOINT Spine2
				{
					OFFSET 0.006300 9.852501 -1.857000
					CHANNELS 3 Zrotation Yrotation Xrotation
					JOINT Spine2_Neck
					{
						OFFSET 0.000000 0.000000 0.000000
						CHANNELS 3 Zrotation Yrotation Xrotation
						JOINT Neck
						{
							OFFSET 0.016300 11.420799 -0.263300
							CHANNELS 3 Zrotation Yrotation Xrotation
							End Site #name: Head
							{
								OFFSET -0.019200 9.262405 2.362500
							}
						}
					}
					JOINT Spine2_LeftShoulder
					{
						OFFSET 0.000000 0.000000 0.000000
						CHANNELS 3 Zrotation Yrotation Xrotation
						JOINT LeftShoulder
						{
							OFFSET 5.616900 6.732201 -0.345700
							CHANNELS 3 Zrotation Yrotation Xrotation
							JOINT LeftArm
							{
								OFFSET 10.664888 -0.183372 -2.440700
								CHANNELS 3 Zrotation Yrotation Xrotation
								JOINT LeftForeArm
								{
									OFFSET 27.459126 0.000000 0.000000
									CHANNELS 3 Zrotation Yrotation Xrotation
									End Site #name: LeftHand
									{
										OFFSET 21.306858 0.000000 0.000000
									}
								}
							}
						}
					}
					JOINT Spine2_RightShoulder
					{
						OFFSET 0.000000 0.000000 0.000000
						CHANNELS 3 Zrotation Yrotation Xrotation
						JOINT RightShoulder
						{
							OFFSET -5.580300 6.737503 -0.344400
							CHANNELS 3 Zrotation Yrotation Xrotation
							JOINT RightArm
							{
								OFFSET -10.679335 -0.188484 -2.383900
								CHANNELS 3 Zrotation Yrotation Xrotation
								JOINT RightForeArm
								{
									OFFSET -27.503529 0.000000 0.000000
									CHANNELS 3 Zrotation Yrotation Xrotation
									End Site #name: RightHand
									{
										OFFSET -21.306808 0.000000 0.000000
									}
								}
							}
						}
					}
				}
			}
		}
	}
	JOINT Hips_LeftUpLeg
	{
		OFFSET 0.000000 0.000000 0.000000
		CHANNELS 3 Zrotation Yrotation Xrotation
		JOINT LeftUpLeg
		{
			OFFSET 6.857700 -6.739601 0.312100
			CHANNELS 3 Zrotation Yrotation Xrotation
			JOINT LeftLeg
			{
				OFFSET -0.367590 -34.731552 -4.572400
				CHANNELS 3 Zrotation Yrotation Xrotation
				End Site #name: LeftFoot
				{
					OFFSET 0.367590 -34.656704 -6.067400
				}
			}
		}
	}
	JOINT Hips_RightUpLeg
	{
		OFFSET 0.000000 0.000000 0.000000
		CHANNELS 3 Zrotation Yrotation Xrotation
		JOINT RightUpLeg
		{
			OFFSET -6.876100 -6.733299 0.301000
			CHANNELS 3 Zrotation Yrotation Xrotation
			JOINT RightLeg
			{
				OFFSET 0.347353 -34.795158 -4.515900
				CHANNELS 3 Zrotation Yrotation Xrotation
				End Site #name: RightFoot
				{
					OFFSET -0.347353 -34.589367 -6.070300
				}
			}
		}
	}
}
MOTION
Frames: 15
Frame Time: 0.041667
-0.924971 0.055064 -0.326136 2.203336 12.031779 -11.140705 0.000000 0.000000 0.000000 -0.828518 -2.624539 4.848440 -0.451588 -6.264911 11.061861 0.000000 0.000000 0.000000 -0.640280 -5.827676 11.694077 11.564908 -5.812739 0.562172 -0.528514 -5.763279 10.915140 -10.232663 -18.744304 4.227823 -46.319006 -38.333401 -9.030273 0.903866 -64.158491 51.956216 -0.552098 -5.876948 10.622022 16.539495 16.204960 4.430502 30.089371 25.691200 12.450093 -8.413138 56.789650 52.892914 -0.000000 0.000000 -0.000000 -10.458073 -24.816951 -91.155272 24.779003 3.491880 77.080764 -0.000000 -0.000000 0.000000 16.018060 1.104232 -109.817464 -29.626516 -2.609627 73.934943 
-0.950597 0.058284 -0.331097 2.207256 12.034515 -11.132119 0.000000 0.000000 0.000000 -0.812311 -2.614993 4.852215 -0.438033 -6.246154 11.048207 0.000000 0.000000 0.000000 -0.622436 -5.809773 11.682087 11.472189 -5.719413 0.454621 -0.515776 -5.745958 10.904448 -10.258132 -18.728347 4.228947 -46.562884 -38.104750 -8.857080 0.817922 -63.839539 51.363422 -0.536519 -5.860347 10.612432 16.550776 16.195215 4.422879 30.013599 26.049997 12.354761 -8.676671 55.257201 52.619805 -0.000000 0.000000 -0.000000 -10.457539 -24.823980 -91.162694 24.779393 3.490461 77.078318 -0.000000 -0.000000 0.000000 16.015417 1.104112 -109.823120 -29.618349 -2.608479 73.930916 
-0.975812 0.061548 -0.336033 2.209406 12.039666 -11.118787 0.000000 0.000000 0.000000 -0.797426 -2.607608 4.853111 -0.425440 -6.228032 11.034678 0.000000 0.000000 0.000000 -0.606935 -5.792896 11.668779 11.387143 -5.626970 0.363332 -0.504803 -5.730194 10.893979 -10.284903 -18.708028 4.229981 -46.805993 -37.881443 -8.694007 0.737894 -63.551233 50.806394 -0.523121 -5.843878 10.601367 16.559916 16.191591 4.417609 29.939789 26.363049 12.221409 -9.157993 53.631307 52.311979 -0.000000 0.000000 -0.000000 -10.459539 -24.829660 -91.173586 24.775834 3.484955 77.078682 -0.000000 -0.000000 0.000000 16.011946 1.100639 -109.835176 -29.610235 -2.607721 73.936942 
-1.000652 0.064942 -0.340847 2.213159 12.044459 -11.109051 0.000000 0.000000 0.000000 -0.783733 -2.600687 4.856968 -0.414644 -6.210961 11.019452 0.000000 0.000000 0.000000 -0.592536 -5.777187 11.652291 11.306117 -5.543814 0.289232 -0.494558 -5.715372 10.879932 -10.300376 -18.687648 4.227299 -47.018926 -37.672516 -8.538349 0.667345 -63.286884 50.313462 -0.510748 -5.828030 10.588943 16.562298 16.193615 4.412979 29.865667 26.625202 12.061299 -9.540668 52.268445 52.148544 -0.000000 0.000000 -0.000000 -10.459204 -24.834376 -91.182374 24.775366 3.482919 77.080559 -0.000000 -0.000000 0.000000 16.008403 1.096515 -109.835259 -29.601284 -2.608224 73.932070 
-1.025065 0.068392 -0.345632 2.215710 12.050751 -11.107822 0.000000 0.000000 0.000000 -0.769402 -2.595072 4.858733 -0.404396 -6.193806 11.004603 0.000000 0.000000 0.000000 -0.579560 -5.761619 11.635709 11.231075 -5.468940 0.228264 -0.485189 -5.700219 10.867366 -10.315903 -18.654217 4.224011 -47.220569 -37.494064 -8.393653 0.602350 -63.045366 49.850409 -0.499637 -5.811660 10.576004 16.567897 16.207519 4.414083 29.783343 26.848447 11.894760 -9.883228 51.091636 52.045672 -0.000000 0.000000 -0.000000 -10.460695 -24.840578 -91.184657 24.775157 3.484969 77.077529 -0.000000 -0.000000 0.000000 16.005572 1.095526 -109.837939 -29.596195 -2.607420 73.931517 
-1.049061 0.071856 -0.350337 2.218382 12.057140 -11.105440 0.000000 0.000000 0.000000 -0.756763 -2.589842 4.861810 -0.395445 -6.176837 10.989156 0.000000 0.000000 0.000000 -0.567552 -5.746674 11.615348 11.161533 -5.400751 0.173072 -0.476983 -5.686521 10.852066 -10.316238 -18.614477 4.215314 -47.397959 -37.340050 -8.261625 0.534959 -62.853576 49.426421 -0.490132 -5.794573 10.559317 16.570287 16.259491 4.424133 29.660891 27.046959 11.727813 -10.191397 50.079460 52.000420 -0.000000 0.000000 -0.000000 -10.462018 -24.844063 -91.186063 24.774872 3.481494 77.077608 -0.000000 -0.000000 0.000000 16.004634 1.096148 -109.842954 -29.592959 -2.606642 73.933657 
-1.072592 0.075364 -0.354925 2.220044 12.066453 -11.100736 0.000000 0.000000 0.000000 -0.744823 -2.584863 4.861259 -0.388440 -6.161388 10.974355 0.000000 0.000000 0.000000 -0.558140 -5.731360 11.597008 11.097999 -5.337391 0.122223 -0.470069 -5.672803 10.838370 -10.312845 -18.580258 4.206759 -47.553526 -37.195696 -8.161718 0.461395 -62.680423 49.045925 -0.482755 -5.778563 10.544409 16.562704 16.306096 4.431944 29.523859 27.208979 11.546581 -10.453876 49.199943 52.014270 -0.000000 0.000000 -0.000000 -10.456744 -24.847014 -91.201834 24.774089 3.476381 77.090105 -0.000000 -0.000000 0.000000 16.005034 1.097575 -109.842994 -29.585642 -2.605611 73.933850 
-1.095578 0.078858 -0.359441 2.223408 12.073137 -11.095599 0.000000 0.000000 0.000000 -0.734691 -2.579881 4.863834 -0.381918 -6.147028 10.961635 0.000000 0.000000 0.000000 -0.550121 -5.717656 11.578885 11.037754 -5.278917 0.076892 -0.464887 -5.660218 10.824218 -10.307368 -18.546310 4.198028 -47.684539 -37.088562 -8.082443 0.396314 -62.521914 48.679710 -0.476754 -5.763141 10.529936 16.551291 16.340974 4.436990 29.395593 27.327902 11.378280 -10.700528 48.409037 52.057400 -0.000000 0.000000 -0.000000 -10.459927 -24.849943 -91.201150 24.768924 3.474013 77.086479 -0.000000 -0.000000 0.000000 16.003704 1.095136 -109.844334 -29.577312 -2.604390 73.935932 
-1.117989 0.082261 -0.363874 2.224000 12.078445 -11.089524 0.000000 0.000000 0.000000 -0.725257 -2.575285 4.862121 -0.377596 -6.133022 10.947772 0.000000 0.000000 0.000000 -0.543262 -5.704693 11.561488 10.980238 -5.224477 0.037445 -0.460002 -5.648275 10.810455 -10.304317 -18.513960 4.189914 -47.792009 -36.986317 -7.999731 0.332729 -62.373244 48.353931 -0.472370 -5.748875 10.515750 16.537694 16.374985 4.441172 29.262991 27.428809 11.210159 -10.914725 47.738469 52.145976 -0.000000 0.000000 -0.000000 -10.456768 -24.847595 -91.203657 24.772379 3.470365 77.091319 -0.000000 -0.000000 0.000000 16.002037 1.089370 -109.835248 -29.567666 -2.602956 73.940341 
-1.139762 0.085834 -0.368215 2.227160 12.081901 -11.087575 0.000000 0.000000 0.000000 -0.716787 -2.571038 4.859217 -0.373359 -6.119462 10.934758 0.000000 0.000000 0.000000 -0.537094 -5.691962 11.544155 10.923250 -5.168718 -0.003328 -0.456630 -5.636582 10.797158 -10.299674 -18.481432 4.181837 -47.892690 -36.893770 -7.934990 0.265237 -62.248469 48.039448 -0.468323 -5.734806 10.501527 16.528606 16.400532 4.445003 29.131285 27.504602 11.046033 -11.121458 47.149446 52.259426 -0.000000 0.000000 -0.000000 -10.452591 -24.845655 -91.203726 24.771884 3.468699 77.098577 -0.000000 -0.000000 0.000000 16.002921 1.091548 -109.829984 -29.561670 -2.601754 73.942425 
-1.160840 0.089324 -0.372412 2.227229 12.084322 -11.083958 0.000000 0.000000 0.000000 -0.708717 -2.567734 4.858805 -0.369865 -6.106744 10.922667 0.000000 0.000000 0.000000 -0.531985 -5.680115 11.526925 10.869012 -5.116272 -0.040486 -0.453268 -5.625563 10.783664 -10.300590 -18.446200 4.174395 -48.015265 -36.784747 -7.848829 0.197745 -62.128270 47.750992 -0.465255 -5.720815 10.488379 16.510833 16.422152 4.445370 28.991777 27.554201 10.885536 -11.328084 46.613310 52.380554 -0.000000 0.000000 -0.000000 -10.451899 -24.838174 -91.199606 24.772624 3.469499 77.102510 -0.000000 -0.000000 0.000000 16.004454 1.093607 -109.817560 -29.553936 -2.601220 73.939570 
-1.181143 0.092797 -0.376571 2.226712 12.085383 -11.079871 0.000000 0.000000 0.000000 -0.700378 -2.563821 4.857485 -0.367429 -6.095472 10.910895 0.000000 0.000000 0.000000 -0.527525 -5.669288 11.510663 10.815715 -5.064134 -0.076252 -0.450975 -5.615741 10.770860 -10.294331 -18.415385 4.165294 -48.127388 -36.676801 -7.756301 0.144542 -62.014148 47.465237 -0.463489 -5.707592 10.476318 16.502688 16.441651 4.447373 28.859579 27.607311 10.735494 -11.510360 46.169887 52.529903 -0.000000 0.000000 -0.000000 -10.449310 -24.832539 -91.192757 24.774627 3.470529 77.102878 -0.000000 -0.000000 0.000000 16.006538 1.094875 -109.811750 -29.548075 -2.598440 73.944914 
-1.200708 0.096310 -0.380582 2.223145 12.087474 -11.074309 0.000000 0.000000 0.000000 -0.693611 -2.561700 4.853977 -0.365199 -6.085686 10.901448 0.000000 0.000000 0.000000 -0.524356 -5.659535 11.494327 10.770468 -5.016017 -0.116274 -0.449915 -5.607608 10.757619 -10.291452 -18.388506 4.157778 -48.268020 -36.560787 -7.665240 0.080412 -61.923409 47.208632 -0.462397 -5.696548 10.464519 16.488318 16.460293 4.448145 28.686617 27.686506 10.546567 -11.664785 45.744227 52.689803 -0.000000 0.000000 -0.000000 -10.443635 -24.832388 -91.194188 24.780080 3.467946 77.108858 -0.000000 -0.000000 0.000000 16.008427 1.097816 -109.812106 -29.540634 -2.592602 73.958434 
-1.219261 0.099923 -0.384408 2.219667 12.086236 -11.069055 0.000000 0.000000 0.000000 -0.688275 -2.560747 4.851603 -0.364818 -6.078875 10.892613 0.000000 0.000000 0.000000 -0.522331 -5.653062 11.479516 10.729273 -4.988881 -0.148485 -0.449794 -5.601962 10.746038 -10.281692 -18.370845 4.150990 -48.418100 -36.438082 -7.557454 0.041576 -61.841557 46.971900 -0.462881 -5.687768 10.454006 16.476205 16.485073 4.450268 28.509225 27.807091 10.345726 -11.812854 45.324349 52.837542 -0.000000 0.000000 -0.000000 -10.442988 -24.820637 -91.182913 24.785177 3.465753 77.115540 -0.000000 -0.000000 0.000000 16.012424 1.100464 -109.804812 -29.525958 -2.584517 73.960466 
-1.236654 0.103461 -0.388047 2.213602 12.087581 -11.067363 0.000000 0.000000 0.000000 -0.685030 -2.561004 4.849692 -0.365135 -6.075019 10.886176 0.000000 0.000000 0.000000 -0.522309 -5.649057 11.468450 10.692827 -4.963458 -0.173824 -0.451860 -5.598483 10.738344 -10.281665 -18.363656 4.147170 -48.587718 -36.311590 -7.452691 -0.004145 -61.779337 46.781923 -0.463992 -5.681519 10.446795 16.461863 16.522055 4.454683 28.270530 27.991063 10.090478 -11.949206 44.886631 52.985737 -0.000000 0.000000 -0.000000 -10.439966 -24.813280 -91.179593 24.795104 3.467456 77.121868 -0.000000 -0.000000 0.000000 16.018687 1.103524 -109.787248 -29.516265 -2.578951 73.959328 
